<?xml version="1.0" encoding="UTF-8"?><svg id="Calque_2" xmlns="http://www.w3.org/2000/svg" viewBox="0 0 96.77 34.33"><defs><style>.cls-1{fill:#fff;}</style></defs><g id="Calque_1-2"><g id="LOGO"><path class="cls-1" d="M37.84,11.99c0,.66-.54,1.2-1.2,1.2s-1.2-.54-1.2-1.2.54-1.2,1.2-1.2,1.2.54,1.2,1.2"/><path class="cls-1" d="M48.54,22.47L37.59.55c-.19-.37-.57-.55-.95-.55h0c-.38,0-.75.17-.94.55l-10.95,21.92c-.24.47-.02,1.03.49,1.26l.39.17c.51.22,1.11.02,1.35-.46l3.9-7.8,4.23,3.55c.89.75,2.19.75,3.08,0l4.23-3.55,3.9,7.8c.24.47.84.68,1.35.46l.39-.17c.51-.22.73-.78.49-1.26M37.4,16.7c-.45.37-1.1.37-1.54,0l-3.9-3.27,4.64-9.29.03-.06.03.06,4.64,9.29-3.9,3.28Z"/><path class="cls-1" d="M13.99,1.54c0,.66-.53,1.19-1.19,1.19s-1.19-.53-1.19-1.19.53-1.19,1.19-1.19,1.19.53,1.19,1.19"/><path class="cls-1" d="M24.69,15.98c-.08.6-.62,1.04-1.22,1.04h-9.48v1.59h3.65c.66,0,1.19.53,1.19,1.19s-.53,1.19-1.19,1.19h-3.65v1.98c0,.66-.53,1.19-1.19,1.19s-1.19-.53-1.19-1.19v-1.98h-3.49c-.66,0-1.19-.53-1.19-1.19s.53-1.19,1.19-1.19h3.49v-1.59H2.13c-.63,0-1.19-.48-1.23-1.11-.02-.36.11-.69.35-.93.22-.22.51-.35.84-.35h21.43c.71,0,1.27.62,1.18,1.35"/><path class="cls-1" d="M24.77.35c.47.47.46,1.22,0,1.68l-10.26,10.26h0c-.93.93-2.43.93-3.36,0L.89,2.03c-.47-.46-.47-1.22,0-1.68h0c.46-.47,1.22-.47,1.68,0l9.42,9.42c.46.46,1.22.46,1.68,0L23.09.35c.46-.47,1.22-.47,1.68,0h0Z"/><path class="cls-1" d="M85.97,11.99c0,.66-.54,1.2-1.2,1.2s-1.2-.54-1.2-1.2.54-1.2,1.2-1.2,1.2.54,1.2,1.2"/><path class="cls-1" d="M96.67,22.47L85.72.55c-.19-.37-.57-.55-.95-.55h0c-.38,0-.75.17-.94.55l-10.95,21.92c-.24.47-.02,1.03.49,1.26l.39.17c.51.22,1.11.02,1.35-.46l3.9-7.8,4.23,3.55c.89.75,2.19.75,3.08,0l4.23-3.55,3.9,7.8c.24.47.84.68,1.35.46l.39-.17c.51-.22.73-.78.49-1.26M85.54,16.7c-.45.37-1.1.37-1.54,0l-3.9-3.27,4.64-9.29.03-.06.03.06,4.64,9.29-3.9,3.28Z"/><path class="cls-1" d="M62.12,1.54c0,.66-.53,1.19-1.19,1.19s-1.19-.53-1.19-1.19.53-1.19,1.19-1.19,1.19.53,1.19,1.19"/><path class="cls-1" d="M72.83,15.98c-.08.6-.62,1.04-1.22,1.04h-9.48v1.59h3.65c.66,0,1.19.53,1.19,1.19s-.53,1.19-1.19,1.19h-3.65v1.98c0,.66-.53,1.19-1.19,1.19s-1.19-.53-1.19-1.19v-1.98h-3.49c-.66,0-1.19-.53-1.19-1.19s.53-1.19,1.19-1.19h3.49v-1.59h-9.48c-.63,0-1.19-.48-1.23-1.11-.02-.36.11-.69.35-.93.22-.22.51-.35.84-.35h21.43c.71,0,1.27.62,1.18,1.35"/><path class="cls-1" d="M72.91.35c.47.47.46,1.22,0,1.68l-10.26,10.26h0c-.93.93-2.43.93-3.36,0l-10.26-10.26c-.47-.46-.47-1.22,0-1.68h0c.46-.47,1.22-.47,1.68,0l9.42,9.42c.46.46,1.22.46,1.68,0L71.23.35c.46-.47,1.22-.47,1.68,0h0Z"/><path class="cls-1" d="M1.41,33.31c.08,0,.15,0,.22.01s.13.03.19.06c.05.03.1.08.13.15s.05.15.05.26c0,.12-.02.21-.05.28s-.08.12-.13.15c-.05.03-.12.05-.19.06-.07,0-.14.01-.22.01h-.83c-.08,0-.16,0-.23-.03-.07-.02-.13-.05-.18-.09-.05-.04-.09-.1-.12-.18s-.04-.17-.04-.28v-4.46c0-.19.04-.34.13-.44.09-.1.24-.15.46-.15h.83c.08,0,.15,0,.22.01.07,0,.13.03.18.06.05.03.1.08.13.15s.05.15.05.26c0,.12-.02.21-.05.28-.03.07-.08.12-.13.15s-.12.05-.18.06c-.07,0-.14.01-.22.01h-.43v3.67h.43Z"/><path class="cls-1" d="M9.05,30.09c0,.11.04.21.1.3s.15.17.25.26c.1.08.22.16.35.23.13.08.27.16.4.24s.27.18.4.28c.13.1.25.21.35.34.1.13.19.27.25.43.06.16.1.34.1.54v.03c0,.22-.03.41-.08.57s-.12.3-.21.42c-.09.12-.19.22-.31.29-.12.08-.24.14-.37.18s-.26.08-.39.1c-.13.02-.26.03-.38.03h-.04c-.23,0-.43-.02-.6-.07s-.32-.11-.44-.18c-.12-.08-.23-.16-.31-.26s-.15-.2-.19-.31-.08-.21-.1-.32c-.02-.1-.03-.2-.03-.29s.02-.18.05-.25c.03-.07.07-.13.13-.17.05-.04.11-.08.18-.1.07-.02.14-.03.22-.03.07,0,.14.01.22.03s.14.05.2.1c.06.04.11.1.15.17s.06.15.06.24c0,.2.05.34.14.41.09.07.21.11.37.11.08,0,.15-.01.22-.03s.13-.05.17-.09.09-.1.11-.18c.03-.07.04-.17.04-.28,0-.14-.03-.27-.09-.38-.06-.11-.15-.22-.25-.31s-.22-.19-.35-.28c-.13-.09-.27-.17-.4-.26-.14-.09-.27-.18-.4-.27-.13-.1-.25-.2-.35-.31-.1-.11-.19-.24-.25-.37-.06-.14-.1-.29-.1-.47v-.06c0-.29.04-.53.11-.72s.18-.34.33-.45c.14-.11.32-.19.53-.24s.45-.07.72-.07h.1c.25,0,.46.03.63.08.17.05.31.12.43.21s.2.18.27.28c.07.1.11.21.15.31.03.1.05.2.06.29,0,.09.01.16.01.21,0,.08-.02.15-.05.22-.03.07-.07.12-.12.17-.05.05-.11.08-.18.11-.07.03-.15.04-.23.04-.06,0-.13-.01-.19-.04s-.12-.06-.17-.1c-.05-.04-.09-.09-.12-.14-.03-.05-.05-.11-.05-.16,0-.22-.04-.37-.12-.46s-.19-.13-.35-.13c-.07,0-.14,0-.21.01s-.13.03-.18.07c-.05.04-.09.09-.12.17s-.05.18-.05.32Z"/><path class="cls-1" d="M17.44,32.08v1.3c0,.12,0,.23,0,.34,0,.11-.03.21-.07.29s-.1.15-.18.21c-.08.05-.2.08-.36.08s-.27-.03-.35-.08c-.08-.05-.14-.12-.18-.21-.04-.09-.06-.18-.07-.29s0-.22,0-.34v-3.8c0-.12,0-.23,0-.34s.03-.21.07-.29c.04-.09.1-.15.18-.21.08-.05.2-.08.35-.08h1.33c.33.02.63.09.89.21.11.05.22.12.33.2.11.08.2.18.29.3.08.12.15.25.2.41.05.16.08.34.08.55,0,.29-.04.54-.13.75-.09.22-.22.4-.39.54-.17.15-.38.26-.62.33-.25.07-.52.11-.83.11h-.51ZM17.99,31.12c.13,0,.25-.04.36-.1.05-.02.09-.06.13-.09.04-.04.08-.08.12-.14.03-.05.06-.12.08-.2s.03-.16.03-.26c0-.09-.01-.17-.03-.24s-.05-.13-.08-.18-.07-.09-.11-.13c-.04-.03-.08-.06-.12-.09-.1-.05-.22-.08-.34-.09h-.59v1.5h.55Z"/><path class="cls-1" d="M25.94,29.6c0-.12,0-.23.02-.34.01-.11.04-.21.08-.3.04-.09.11-.16.2-.21.09-.05.21-.08.37-.08s.28.03.37.08c.09.05.15.12.2.21.04.09.07.19.08.3.01.11.02.22.02.34v3.78c0,.12,0,.23-.02.34s-.04.21-.08.3c-.04.09-.11.16-.2.21s-.21.08-.37.08-.28-.03-.37-.08c-.09-.05-.15-.12-.2-.21-.04-.09-.07-.19-.08-.3-.01-.11-.02-.22-.02-.34v-3.78Z"/><path class="cls-1" d="M35.1,28.64c.29,0,.55.03.76.1.21.07.39.15.54.26s.26.23.35.36c.09.14.16.27.2.41.05.14.08.27.09.4.01.13.02.24.02.33,0,.04,0,.09,0,.15,0,.06-.03.11-.07.17-.04.05-.1.1-.19.14-.09.04-.21.06-.37.06-.05,0-.12,0-.2,0-.08,0-.16-.02-.23-.05s-.14-.07-.19-.12c-.05-.05-.08-.13-.08-.22,0-.14,0-.27-.03-.39-.02-.12-.05-.21-.09-.29-.05-.08-.11-.14-.19-.18s-.18-.06-.31-.06-.23.03-.3.08c-.07.05-.12.11-.15.18-.04.08-.06.16-.06.26v2.55c0,.12.03.22.06.31.03.08.08.15.15.21.07.06.17.1.3.1s.23-.03.31-.08.14-.12.19-.21c.05-.09.08-.19.09-.31.02-.12.03-.24.03-.36,0-.04,0-.08.02-.12.01-.04.04-.08.09-.12s.12-.07.21-.09c.09-.02.22-.04.38-.04s.28.02.37.05.15.08.19.12c.04.05.06.09.07.14,0,.04,0,.07,0,.09,0,.29-.05.56-.15.79-.1.23-.24.43-.42.59-.18.16-.4.28-.65.37-.25.08-.53.13-.83.13-.05,0-.13,0-.24-.01-.11,0-.23-.03-.36-.06-.13-.03-.27-.09-.41-.16-.14-.07-.27-.17-.39-.29-.12-.12-.21-.28-.29-.47-.08-.19-.11-.41-.11-.68v-2.24c0-.22.03-.41.08-.58.05-.17.12-.32.21-.44.09-.12.19-.23.3-.31s.23-.15.35-.21c.27-.13.59-.2.94-.22Z"/><path class="cls-1" d="M44.29,33.39c0,.11,0,.22-.02.33-.01.11-.04.21-.08.29-.04.09-.1.15-.18.21s-.19.08-.33.08-.25-.03-.33-.08-.14-.12-.18-.21c-.04-.09-.07-.18-.08-.29-.01-.11-.02-.22-.02-.33v-1.4l-1.2-2.14c-.06-.11-.13-.22-.19-.33s-.09-.22-.09-.33c0-.07.02-.15.06-.22.04-.07.12-.14.23-.21.12-.06.23-.1.34-.1.08,0,.15.02.22.05s.13.08.18.14c.05.06.1.13.14.2.04.07.08.15.12.22l.73,1.54h.13l.73-1.54c.03-.08.07-.15.12-.22s.09-.14.14-.2c.05-.06.11-.11.18-.14s.14-.05.22-.05c.06,0,.11,0,.16.02.05.02.11.04.17.07.1.06.18.13.22.21s.07.15.07.22c0,.05-.02.13-.06.24s-.11.25-.21.42l-1.21,2.14v1.4Z"/><path class="cls-1" d="M52.32,34.33c-.3,0-.55-.03-.76-.1s-.39-.15-.54-.26-.26-.23-.35-.36c-.09-.14-.16-.27-.2-.41-.05-.14-.08-.27-.09-.4s-.02-.24-.02-.33c0-.04,0-.09,0-.15,0-.06.03-.11.07-.17.04-.05.1-.1.19-.14.09-.04.21-.06.37-.06.05,0,.12,0,.2,0,.08,0,.16.02.23.05.07.03.14.07.19.12.05.05.08.13.08.22,0,.14,0,.27.03.39.02.12.05.21.09.29.05.08.11.14.19.19.08.04.18.06.31.06s.23-.03.3-.08.12-.11.15-.18c.04-.08.06-.16.06-.26v-2.95h-1.05c-.11,0-.21,0-.32-.02-.11-.01-.2-.03-.29-.07-.09-.04-.16-.09-.21-.17-.06-.08-.08-.18-.08-.31s.03-.24.08-.31c.05-.08.13-.14.21-.17s.18-.06.29-.07c.11-.01.21-.02.32-.02h1.64c.15,0,.27.03.36.08.09.05.16.12.2.21.05.09.08.19.09.3.01.11.02.22.02.34v3.06c0,.28-.04.51-.12.71-.08.19-.18.35-.3.48s-.26.22-.4.29c-.15.07-.29.12-.42.15-.13.03-.25.05-.35.05-.1,0-.16,0-.19,0Z"/><path class="cls-1" d="M58.9,29.59c0-.12,0-.23.02-.34.01-.11.04-.21.08-.29s.11-.15.2-.21c.09-.05.21-.08.37-.08s.28.03.37.08c.09.05.16.12.2.21.04.09.07.18.08.29.01.11.02.22.02.34v3.17c0,.12.03.22.07.31.02.04.04.08.06.12.03.04.06.07.09.1.04.03.08.05.13.07s.11.03.17.03.12,0,.17-.03.09-.04.13-.07c.04-.03.07-.06.09-.1.03-.04.05-.08.06-.12.04-.09.06-.2.07-.31v-3.17c0-.12,0-.23.02-.34s.04-.21.08-.29.11-.15.2-.21c.09-.05.21-.08.37-.08s.28.03.37.08c.09.05.15.12.2.21.04.09.07.18.08.29s.02.22.02.34v3.06c0,.28-.04.52-.13.73-.09.21-.22.38-.38.52-.16.14-.36.25-.59.32s-.48.11-.76.11-.53-.04-.76-.11c-.23-.07-.42-.18-.59-.32-.16-.14-.29-.32-.38-.53-.09-.21-.13-.45-.13-.72v-3.06Z"/><path class="cls-1" d="M68.64,29.6c0-.12,0-.23.02-.34.01-.11.04-.21.08-.3.04-.09.11-.16.2-.21.09-.05.21-.08.37-.08s.28.03.37.08c.09.05.15.12.2.21.04.09.07.19.08.3.01.11.02.22.02.34v3.78c0,.12,0,.23-.02.34s-.04.21-.08.3c-.04.09-.11.16-.2.21-.09.05-.21.08-.37.08s-.28-.03-.37-.08-.15-.12-.2-.21c-.04-.09-.07-.19-.08-.3-.01-.11-.02-.22-.02-.34v-3.78Z"/><path class="cls-1" d="M77.79,28.64c.29,0,.55.03.76.1.21.07.39.15.54.26.15.11.26.23.35.36.09.14.16.27.2.41.05.14.08.27.09.4.01.13.02.24.02.33,0,.04,0,.09-.01.15s-.03.11-.07.17c-.04.05-.1.1-.19.14-.09.04-.21.06-.37.06-.05,0-.12,0-.2,0-.08,0-.16-.02-.23-.05-.08-.03-.14-.07-.19-.12-.05-.05-.08-.13-.08-.22,0-.14,0-.27-.03-.39-.02-.12-.05-.21-.09-.29-.05-.08-.11-.14-.19-.18s-.18-.06-.31-.06-.23.03-.3.08c-.07.05-.12.11-.15.18-.04.08-.06.16-.06.26v2.55c0,.12.03.22.06.31.03.08.08.15.15.21s.17.1.3.1.23-.03.31-.08.14-.12.19-.21.08-.19.09-.31c.02-.12.03-.24.03-.36,0-.04,0-.08.02-.12s.04-.08.09-.12c.05-.04.12-.07.21-.09.09-.02.22-.04.38-.04s.28.02.37.05.15.08.19.12c.04.05.06.09.07.14s.01.07.01.09c0,.29-.05.56-.15.79-.1.23-.24.43-.42.59-.18.16-.4.28-.65.37-.25.08-.53.13-.83.13-.05,0-.13,0-.23-.01-.11,0-.23-.03-.36-.06-.13-.03-.27-.09-.41-.16-.14-.07-.27-.17-.39-.29s-.21-.28-.29-.47c-.07-.19-.11-.41-.11-.68v-2.24c0-.22.03-.41.08-.58.05-.17.12-.32.21-.44s.19-.23.3-.31c.11-.08.23-.15.35-.21.27-.13.59-.2.94-.22Z"/><path class="cls-1" d="M87.01,28.67c.11,0,.22,0,.33.01.11,0,.21.03.3.07.09.04.16.09.22.17.06.08.08.18.08.32s-.03.24-.08.32c-.06.08-.13.13-.22.17-.09.04-.19.06-.3.07-.11,0-.22.01-.33.01h-.96v1.09h.51c.11,0,.22,0,.32.01.11,0,.2.03.29.06.08.04.15.09.21.16.05.07.08.18.08.31s-.03.24-.08.31c-.05.07-.12.13-.21.16-.08.04-.18.06-.29.06-.11,0-.22.01-.32.01h-.51v1.16h.96c.11,0,.22,0,.33.01.11,0,.21.03.3.07.09.04.16.09.22.17.06.08.08.18.08.32s-.03.25-.09.33-.13.14-.22.17c-.09.04-.19.06-.3.07-.11,0-.22.01-.32.01h-1.58c-.15,0-.27-.03-.35-.08-.08-.05-.14-.12-.18-.21-.04-.09-.06-.19-.07-.3,0-.11-.01-.22-.01-.34v-3.78c0-.12,0-.23.01-.34,0-.11.03-.21.07-.3.04-.09.1-.16.18-.21.08-.05.2-.08.35-.08h1.58Z"/><path class="cls-1" d="M94.94,33.31v-3.67h-.43c-.07,0-.15,0-.22-.01-.07,0-.13-.03-.19-.06s-.1-.08-.13-.15c-.03-.07-.05-.16-.05-.28,0-.11.02-.19.05-.26s.08-.11.13-.15c.05-.03.12-.05.19-.06.07,0,.14-.01.22-.01h.83c.22,0,.37.05.46.15s.13.25.13.44v4.46c0,.12-.01.21-.04.28-.03.07-.07.13-.12.18-.05.04-.11.08-.18.09-.07.02-.15.03-.23.03h-.83c-.08,0-.15,0-.22-.01-.07,0-.13-.03-.19-.06-.05-.03-.1-.08-.13-.15-.03-.07-.05-.16-.05-.28,0-.11.02-.19.05-.26.03-.06.08-.11.13-.15.05-.03.12-.05.19-.06s.14-.01.22-.01h.43Z"/></g></g></svg>