<?xml version="1.0" encoding="UTF-8"?><svg id="Calque_2" xmlns="http://www.w3.org/2000/svg" viewBox="0 0 186.96 187"><defs><style>.cls-1{fill:#fff;}</style></defs><g id="Calque_1-2"><g id="Monogramme"><g id="Monogramme_2.0"><path class="cls-1" d="M93.48.7C42.22.7.66,42.22.66,93.48s41.56,92.82,92.82,92.82,92.82-41.56,92.82-92.82S144.73.7,93.48.7ZM93.48,52.1c2.42,0,4.41,1.98,4.41,4.41s-1.98,4.41-4.41,4.41-4.41-1.98-4.41-4.41,1.98-4.41,4.41-4.41ZM135.89,103.4c0,.62-.15,1.21-.44,1.73-.29.62-.77,1.17-1.36,1.58-.11.07-.18.15-.29.22-.11.04-.22.11-.29.18-.07,0-.15.04-.18.07-.22.11-.44.18-.66.26-.07,0-.15.04-.22.04h-.04s-.07.04-.15.04c-.22.04-.48.07-.73.07h-.15c-3.05.07-6.13,0-9.18,0h-24.82v2.2c0,1.51.07,3.05,0,4.59v.18c0,.26-.04.51-.07.77v.07h.07c.37-.04.7-.07,1.03-.07h.99c.62-.04,1.28,0,1.95,0h10.68c.29,0,.59.04.84.07.15.04.29.07.44.11.29.07.59.22.84.37.33.18.62.4.88.66.22.22.4.48.59.73.48.7.77,1.54.81,2.42.04,1.21-.51,2.31-1.36,3.12-.15.15-.29.26-.44.4-.11.04-.18.11-.26.15-.07.07-.18.11-.26.15-.11.07-.22.15-.37.18-.26.15-.59.22-.88.29-.26.07-.55.07-.84.07h-13.62c-.11,0-.22.04-.26.04s-.07.04-.07.04h.11c-.07,0-.11.04-.18.04-.04,0-.07.04-.11.07-.07.11-.15.18-.26.26-.04.11-.15.26-.18.33.04.22-.04.37-.04.4h-.04v5.87c-.11,1.8-1.28,3.23-2.9,3.82-.15.07-.29.11-.48.15-.07.04-.18.04-.26.07-.07,0-.18.04-.26.04-.15.04-.33.04-.48.04h-.15c-.22,0-.44,0-.66-.04-.11-.04-.26-.04-.37-.07-.18-.07-.37-.15-.51-.22-.18-.07-.37-.15-.51-.26h-.04l-.04-.04c-.26-.15-.48-.33-.66-.51-.88-.84-1.43-2.02-1.43-3.23v-.95c-.04-.73-.04-1.51-.04-2.28,0-.62,0-1.29.04-1.91v-.48c0-.44,0-.84.07-1.25-.04.04-.07.04-.07.04-.37.04-.73.04-1.1.04-1.4.04-2.79.04-4.19.04-2.61,0-5.18-.04-7.78-.04-.29,0-.59,0-.88-.07-.04,0-.07-.04-.15-.04-.11-.04-.18-.04-.29-.07-.11-.04-.18-.07-.29-.11-.15-.07-.26-.11-.4-.18-.37-.22-.7-.48-.99-.77-.81-.81-1.32-1.91-1.36-3.12-.04-.88.26-1.73.73-2.42.4-.55.92-1.03,1.51-1.36.15-.07.26-.15.4-.22.07-.04.11-.04.18-.07.11-.04.26-.07.37-.11.11-.04.26-.07.4-.11.26-.04.51-.07.77-.07h11.97c.18,0,.33-.04.48-.04h.07s.11-.07.18-.11c0-.04.07-.18.29-.33v-.04c.04-.07.04-.11.04-.18,0-.04.04-.07.04-.11v-6.94h-33.19c-.18,0-.33,0-.51-.04h-.15s-.07-.04-.11-.04h-.11c-.07-.04-.15-.04-.18-.07-.07,0-.11,0-.18-.04h-.04c-.07-.04-.15-.04-.18-.07t-.07-.04s-.11-.04-.15-.04l-.04-.04s-.07-.04-.11-.04-.04-.04-.07-.04c-.04-.04-.11-.07-.18-.07v-.04h-.04s-.07-.07-.11-.07-.04-.04-.04-.04c-.04-.04-.11-.07-.15-.11-.04,0-.07-.04-.11-.04v-.04h-.04s-.04-.04-.04-.04c-.07-.04-.11-.07-.15-.11,0,0,0-.04-.04-.04-.04-.04-.07-.07-.15-.11l-.07-.07s-.04-.04-.04-.07c-.04,0-.04-.04-.04-.04-.04-.04-.07-.07-.11-.11l-.04-.04s-.07-.07-.07-.11c-.04-.04-.07-.04-.07-.07l-.07-.07s-.04-.07-.04-.07l-.04-.04c-.04-.07-.11-.15-.15-.22v-.04s-.04-.04-.07-.07t-.04-.07s-.04-.07-.04-.11c-.04-.04-.07-.11-.11-.15v-.04s-.04-.11-.07-.18c0-.04-.04-.07-.04-.11-.04-.04-.04-.07-.04-.07-.04-.07-.04-.15-.07-.18v-.07s-.04-.07-.04-.11c-.04,0-.04-.04-.04-.04,0-.04,0-.11-.04-.15v-.11s-.04-.07-.04-.07v-.07c-.04-.07-.04-.15-.04-.22-.04-.15-.04-.29-.04-.44-.07-1.03.29-1.95.92-2.72.11-.07.18-.18.26-.29.04,0,.07-.04.11-.07.07-.11.18-.18.29-.26.07-.07.18-.15.29-.22.07-.07.15-.11.22-.15.33-.22.7-.4,1.1-.51.11-.04.22-.04.33-.07.29-.07.55-.11.84-.11h.15c3.05-.07,6.13,0,9.18,0h66.75c.29,0,.59.04.88.11.11.04.26.07.37.11.15.04.26.07.4.11.11.07.26.11.37.18.07.04.15.11.22.15s.11.07.18.11c.11.07.26.18.4.33.11.07.22.18.33.29.7.81,1.17,1.87,1.21,3.01v.18ZM134.97,59.19c-.11.07-.18.15-.26.22-4.88,4.63-9.91,9.07-14.87,13.62-5.8,5.29-11.6,10.61-17.37,15.9-.48.4-.92.81-1.36,1.25-2.86,2.57-6.35,4.44-10.32,3.38-3.27-.88-5.65-3.3-8-5.51-6.09-5.73-12.15-11.42-18.25-17.11-4.19-3.89-8.37-7.82-12.56-11.75-1.8-1.69-1.58-4.48,0-6.21,1.65-1.76,4.52-1.54,6.21,0,.07.07.15.18.22.26,4.88,4.48,9.66,9.03,14.5,13.55,5.65,5.29,11.31,10.61,16.96,15.9.48.44.92.88,1.4,1.32.07.07.18.11.29.22.07.04.15.11.22.15.15.11.33.22.51.33.15.07.84.37.84.37.04.04.18,0,.18,0h.04s.07-.04.07-.04c.04,0,.04-.04.04-.04,0,0,.04-.04.07-.04.15-.07.29-.15.44-.26.07-.04.11-.07.15-.11,0,0,.07-.07.33-.26.15-.11.29-.22.4-.33.04-.04.07-.07.11-.11.18-.15.37-.33.55-.48.81-.73,1.62-1.47,2.42-2.2,6.17-5.65,12.34-11.31,18.5-16.96,4.11-3.74,8.19-7.53,12.3-11.27,1.8-1.65,4.37-1.65,6.21,0,1.69,1.58,1.69,4.66,0,6.21Z"/><path class="cls-1" d="M93.48,0C41.86,0,0,41.86,0,93.48s41.86,93.52,93.48,93.52,93.48-41.86,93.48-93.52S145.1,0,93.48,0ZM93.48,186.3C42.22,186.3.66,144.74.66,93.48S42.22.7,93.48.7s92.82,41.53,92.82,92.78-41.56,92.82-92.82,92.82Z"/></g></g></g></svg>