<?xml version="1.0" encoding="UTF-8"?><svg id="Calque_2" xmlns="http://www.w3.org/2000/svg" viewBox="0 0 300.78 105.23"><defs><style>.cls-1{fill:#fff;}</style></defs><g id="Calque_1-2"><circle class="cls-1" cx="112.54" cy="37.39" r="3.74"/><path class="cls-1" d="M149.64,70.05L115.49,1.7c-.58-1.17-1.77-1.73-2.96-1.7h-.03c-1.17-.02-2.35.54-2.93,1.7l-34.14,68.34c-.73,1.48-.05,3.23,1.53,3.91l1.22.53c1.58.69,3.46.05,4.2-1.42l12.15-24.32,13.19,11.07c2.78,2.33,6.83,2.33,9.61,0l13.2-11.08,12.15,24.33c.74,1.47,2.62,2.11,4.2,1.42l1.22-.53c1.58-.69,2.26-2.44,1.53-3.91ZM114.93,52.08c-1.39,1.16-3.42,1.16-4.81,0l-12.16-10.2,14.47-28.97.09-.19.09.19,14.47,28.96-12.17,10.21Z"/><circle class="cls-1" cx="38.21" cy="4.79" r="3.71"/><path class="cls-1" d="M75.29,49.8c-.24,1.87-1.92,3.23-3.81,3.23h-29.56s0,4.95,0,4.95h11.38c2.05,0,3.71,1.66,3.71,3.71h0c0,2.05-1.66,3.71-3.71,3.71h-11.38v6.18c0,2.05-1.66,3.71-3.71,3.71h0c-2.05,0-3.71-1.66-3.71-3.71v-6.18h-10.89c-2.05,0-3.71-1.66-3.71-3.71h0c0-2.05,1.66-3.71,3.71-3.71h10.89v-4.95H4.95c-1.97,0-3.7-1.48-3.84-3.45-.08-1.13.35-2.15,1.08-2.88.67-.67,1.6-1.09,2.62-1.09h66.8c2.21,0,3.97,1.93,3.68,4.2Z"/><path class="cls-1" d="M75.55,1.09c1.45,1.45,1.45,3.8,0,5.25l-32,31.97h0c-2.89,2.9-7.58,2.9-10.47,0h0S1.09,6.34,1.09,6.34c-1.45-1.45-1.45-3.8,0-5.25h0c1.45-1.45,3.8-1.45,5.25,0l29.36,29.36c1.45,1.45,3.8,1.45,5.25,0L70.31,1.09c1.45-1.45,3.8-1.45,5.25,0h0Z"/><circle class="cls-1" cx="262.61" cy="37.39" r="3.74"/><path class="cls-1" d="M299.71,70.05L265.56,1.7c-.58-1.17-1.77-1.73-2.96-1.7h-.03c-1.17-.02-2.35.54-2.93,1.7l-34.14,68.34c-.73,1.48-.05,3.23,1.53,3.91l1.22.53c1.58.69,3.46.05,4.2-1.42l12.15-24.32,13.19,11.07c2.78,2.33,6.83,2.33,9.61,0l13.2-11.08,12.15,24.33c.74,1.47,2.62,2.11,4.2,1.42l1.22-.53c1.58-.69,2.26-2.44,1.53-3.91ZM265,52.08c-1.39,1.16-3.42,1.16-4.81,0l-12.16-10.2,14.47-28.97.09-.19.09.19,14.47,28.96-12.17,10.21Z"/><circle class="cls-1" cx="188.28" cy="4.79" r="3.71"/><path class="cls-1" d="M225.36,49.8c-.24,1.87-1.92,3.23-3.81,3.23h-29.56s0,4.95,0,4.95h11.38c2.05,0,3.71,1.66,3.71,3.71h0c0,2.05-1.66,3.71-3.71,3.71h-11.38v6.18c0,2.05-1.66,3.71-3.71,3.71h0c-2.05,0-3.71-1.66-3.71-3.71v-6.18h-10.89c-2.05,0-3.71-1.66-3.71-3.71h0c0-2.05,1.66-3.71,3.71-3.71h10.89v-4.95h-29.55c-1.97,0-3.7-1.48-3.84-3.45-.08-1.13.35-2.15,1.08-2.88.67-.67,1.6-1.09,2.62-1.09h66.8c2.21,0,3.97,1.93,3.68,4.2Z"/><path class="cls-1" d="M225.62,1.09c1.45,1.45,1.45,3.8,0,5.25l-32,31.97h0c-2.89,2.9-7.58,2.9-10.47,0h0s-32-31.98-32-31.98c-1.45-1.45-1.45-3.8,0-5.25h0c1.45-1.45,3.8-1.45,5.25,0l29.36,29.36c1.45,1.45,3.8,1.45,5.25,0L220.37,1.09c1.45-1.45,3.8-1.45,5.25,0h0Z"/><path class="cls-1" d="M1.39,104.95c-.18-.18-.27-.4-.27-.65v-16.3c0-.25.09-.47.27-.65s.4-.27.65-.27h2.67c.21,0,.39.07.54.22.15.15.22.33.22.54s-.07.39-.22.54-.33.22-.54.22h-1.93v15.14h1.93c.21,0,.39.07.54.22.15.15.22.32.22.51s-.07.37-.22.53c-.15.15-.33.23-.54.23h-2.67c-.25,0-.47-.09-.65-.27Z"/><path class="cls-1" d="M23.08,101.66c-.17-.07-.31-.19-.42-.35-.11-.16-.17-.33-.17-.51,0-.24.08-.44.24-.62s.37-.26.62-.26c.14,0,.27.03.4.08,1.29.57,2.67.86,4.14.86,2.45,0,3.67-.81,3.67-2.42,0-.42-.16-.77-.47-1.05-.32-.28-.7-.5-1.17-.66-.46-.16-1.12-.35-1.97-.58-1.13-.29-2.05-.58-2.75-.85-.7-.27-1.3-.68-1.81-1.23s-.76-1.27-.76-2.18c0-.8.21-1.52.63-2.17.42-.65,1.04-1.17,1.86-1.55.82-.39,1.8-.58,2.95-.58,1.54,0,2.93.23,4.18.69.39.14.59.42.59.84,0,.22-.08.43-.23.61-.15.18-.36.27-.61.27-.08,0-.2-.03-.34-.08-1.09-.38-2.22-.57-3.38-.57s-2.01.21-2.7.63c-.69.42-1.04,1.01-1.04,1.76,0,.5.16.91.49,1.23s.74.56,1.24.74c.5.17,1.17.36,2.03.56,1.11.27,2,.53,2.68.8.68.27,1.26.68,1.74,1.24.48.56.72,1.32.72,2.27,0,.78-.22,1.49-.67,2.11-.45.62-1.08,1.11-1.89,1.46-.81.35-1.75.53-2.81.53-1.78,0-3.44-.34-5-1.01Z"/><path class="cls-1" d="M52.04,102.29c-.18-.18-.27-.41-.27-.67v-12.85c0-.27.09-.49.27-.68.18-.19.41-.28.67-.28h4.79c1.33,0,2.42.22,3.26.67.84.45,1.44,1.02,1.81,1.72s.55,1.46.55,2.27-.18,1.57-.55,2.27-.97,1.27-1.81,1.72c-.84.45-1.93.67-3.26.67h-3.82v4.49c0,.27-.09.49-.28.67-.19.18-.42.27-.68.27s-.49-.09-.67-.27ZM57.31,95.31c1.43,0,2.43-.27,3.01-.82.58-.55.87-1.22.87-2.04s-.29-1.49-.87-2.04c-.58-.55-1.59-.82-3.01-.82h-3.63v5.71h3.63Z"/><path class="cls-1" d="M81.52,102.29c-.18-.18-.27-.41-.27-.67v-12.96c0-.27.09-.49.27-.68.18-.19.41-.28.67-.28s.49.09.68.28c.19.19.28.42.28.68v12.96c0,.27-.09.49-.28.67-.19.18-.42.27-.68.27s-.49-.09-.67-.27Z"/><path class="cls-1" d="M105.3,101.75c-1.11-.61-1.99-1.48-2.62-2.62-.64-1.14-.96-2.47-.96-4s.32-2.86.96-4c.64-1.14,1.51-2.02,2.62-2.62,1.11-.61,2.37-.91,3.77-.91.95,0,1.8.11,2.55.34.75.22,1.49.55,2.24.97.31.17.46.43.46.8,0,.21-.08.4-.23.56-.15.16-.36.24-.61.24-.14,0-.27-.03-.38-.08-.62-.32-1.22-.57-1.81-.74-.59-.17-1.27-.25-2.04-.25-1.2,0-2.23.25-3.08.75-.85.5-1.48,1.18-1.91,2.04-.43.86-.64,1.84-.64,2.93s.21,2.07.64,2.93c.43.86,1.06,1.54,1.91,2.04.85.5,1.87.75,3.08.75.77,0,1.45-.08,2.04-.25.59-.17,1.19-.41,1.81-.73.11-.06.24-.08.38-.08.25,0,.46.08.61.23.15.15.23.34.23.57,0,.36-.15.63-.46.8-.74.42-1.49.74-2.24.97s-1.6.34-2.55.34c-1.4,0-2.66-.3-3.77-.91Z"/><path class="cls-1" d="M136.57,102.29c-.19-.18-.28-.41-.28-.67v-5.36l-5.02-7.04c-.11-.18-.17-.37-.17-.57,0-.27.09-.49.26-.68s.4-.28.66-.28c.35,0,.63.16.84.48l4.39,6.38,4.39-6.38c.21-.32.49-.48.84-.48.27,0,.49.09.67.28.18.19.27.42.25.68,0,.2-.06.38-.17.57l-5.04,7.04v5.36c0,.27-.09.49-.27.67-.18.18-.41.27-.67.27s-.49-.09-.68-.27Z"/><path class="cls-1" d="M160.05,101.95c-.31-.18-.46-.44-.46-.78,0-.22.07-.42.22-.6.15-.17.34-.26.58-.26.14,0,.27.03.38.08.64.31,1.29.46,1.95.46.76,0,1.37-.22,1.84-.65.47-.43.7-1.25.7-2.46v-9.09c0-.27.09-.49.27-.68s.41-.28.67-.28.49.09.68.28c.19.19.28.42.28.68v8.97c0,1.83-.41,3.13-1.23,3.9-.82.76-1.85,1.14-3.1,1.14-1.02,0-1.95-.24-2.79-.71Z"/><path class="cls-1" d="M189.56,102.03c-.92-.42-1.68-1.06-2.27-1.92-.59-.86-.88-1.91-.88-3.16v-8.29c0-.27.09-.49.27-.68.18-.19.41-.28.67-.28s.49.09.68.28c.19.19.28.42.28.68v8.36c0,.84.19,1.55.58,2.14.38.59.89,1.03,1.52,1.32s1.3.44,2.02.44,1.39-.15,2.02-.44c.63-.29,1.14-.74,1.52-1.32.39-.59.58-1.3.58-2.14v-8.36c0-.27.09-.49.27-.68s.41-.28.67-.28.49.09.68.28c.19.19.28.42.28.68v8.29c0,1.25-.29,2.3-.88,3.16-.59.86-1.34,1.5-2.27,1.92s-1.88.63-2.88.63-1.95-.21-2.88-.63Z"/><path class="cls-1" d="M218.07,102.29c-.18-.18-.27-.41-.27-.67v-12.96c0-.27.09-.49.27-.68.18-.19.41-.28.67-.28s.49.09.68.28c.19.19.28.42.28.68v12.96c0,.27-.09.49-.28.67-.19.18-.42.27-.68.27s-.49-.09-.67-.27Z"/><path class="cls-1" d="M241.85,101.75c-1.11-.61-1.99-1.48-2.62-2.62-.64-1.14-.96-2.47-.96-4s.32-2.86.96-4c.64-1.14,1.51-2.02,2.62-2.62,1.11-.61,2.37-.91,3.77-.91.95,0,1.8.11,2.55.34.75.22,1.49.55,2.24.97.31.17.46.43.46.8,0,.21-.08.4-.23.56-.15.16-.36.24-.61.24-.14,0-.27-.03-.38-.08-.62-.32-1.22-.57-1.81-.74-.59-.17-1.27-.25-2.04-.25-1.2,0-2.23.25-3.08.75-.85.5-1.48,1.18-1.91,2.04-.43.86-.64,1.84-.64,2.93s.21,2.07.64,2.93c.43.86,1.06,1.54,1.91,2.04.85.5,1.87.75,3.08.75.77,0,1.45-.08,2.04-.25.59-.17,1.19-.41,1.81-.73.11-.06.24-.08.38-.08.25,0,.46.08.61.23.15.15.23.34.23.57,0,.36-.15.63-.46.8-.74.42-1.49.74-2.24.97s-1.6.34-2.55.34c-1.4,0-2.66-.3-3.77-.91Z"/><path class="cls-1" d="M269.39,102.18c-.18-.18-.27-.41-.27-.67v-12.75c0-.27.09-.49.27-.68.18-.19.41-.28.67-.28h8.42c.25,0,.46.09.64.26.17.17.26.39.26.64s-.09.46-.26.63c-.18.17-.39.25-.64.25h-7.46v4.64h6.7c.25,0,.46.09.64.26.17.18.26.39.26.64s-.09.46-.26.63-.39.25-.64.25h-6.7v4.66h7.46c.25,0,.46.09.64.26.17.17.26.39.26.64s-.09.46-.26.63c-.18.17-.39.25-.64.25h-8.42c-.27,0-.49-.09-.67-.27Z"/><path class="cls-1" d="M296.66,104.99c-.15-.15-.22-.33-.22-.53s.07-.37.22-.51c.15-.15.33-.22.54-.22h1.93v-15.14h-1.93c-.21,0-.39-.07-.54-.22s-.22-.33-.22-.54.07-.39.22-.54c.15-.15.33-.22.54-.22h2.67c.25,0,.47.09.65.27s.27.4.27.65v16.3c0,.25-.09.47-.27.65-.18.18-.4.27-.65.27h-2.67c-.21,0-.39-.08-.54-.23Z"/></g></svg>